<?xml version="1.0" encoding="utf-8"?>
<!-- Generator: Adobe Illustrator 24.1.1, SVG Export Plug-In . SVG Version: 6.00 Build 0)  -->
<svg version="1.1" id="Ebene_1" xmlns="http://www.w3.org/2000/svg" xmlns:xlink="http://www.w3.org/1999/xlink" x="0px" y="0px"
	 viewBox="0 0 727.7 589.3" style="enable-background:new 0 0 727.7 589.3;" xml:space="preserve">
<style type="text/css">
	.st0{fill:#FFFFFF;stroke:#FFFFFF;stroke-width:10;stroke-miterlimit:10;}
</style>
<g id="Ebene_2_1_">
	<g id="Ebene_1-2">
		<path class="st0" d="M672.9,5H54.8C27.3,5,5,27.3,5,54.8v479.7c0,27.5,22.3,49.8,49.8,49.8h618.1c27.5,0,49.8-22.3,49.8-49.8V54.1
			C722.7,27,700,5,672.9,5z M54.8,30.6h618.1c13.3,0.1,24.1,10.9,24.2,24.2v88.6H30.6V54.1C30.6,40.9,41.6,30.6,54.8,30.6z
			 M672.9,557.9H54.8c-13.3-0.1-24.1-10.9-24.2-24.2V169H697v365.4C697,547.7,686.1,557.9,672.9,557.9z M78.2,95.8
			c-2.2-2.4-3.5-5.5-3.7-8.8c0.1-3.3,1.4-6.4,3.7-8.8c5.3-4.4,13-4.4,18.3,0c2.2,2.4,3.5,5.5,3.7,8.8c0,6.9-5.6,12.4-12.4,12.4
			C84.8,99.5,80.4,98,78.2,95.8z M147.1,95.8c-2.2-2.4-3.5-5.5-3.7-8.8c0.1-3.3,1.4-6.4,3.7-8.8c4.4-4.4,13.2-4.4,18.3,0
			c2.2,2.4,3.5,5.5,3.7,8.8c0,6.9-5.6,12.4-12.4,12.4C153.7,99.5,149.3,98,147.1,95.8L147.1,95.8z M216.6,95.8
			c-2.2-2.4-3.5-5.5-3.7-8.8c0.1-3.3,1.4-6.4,3.7-8.8c4.4-4.4,13.2-4.4,18.3,0c2.2,2.4,3.5,5.5,3.7,8.8c0,6.9-5.6,12.4-12.4,12.4
			C223.2,99.5,218.8,98,216.6,95.8L216.6,95.8z M590.9,355.1c5.3,4.5,5.9,12.4,1.4,17.6c-0.4,0.5-0.9,1-1.4,1.4l-108.4,93
			c-2.5,1.9-5.6,3-8.8,2.9c-3.7,0.1-7.2-1.5-9.5-4.4c-4.4-5.1-3.7-13.2,1.5-18.3l97.4-82.8l-97.4-82c-5.1-4.4-5.9-12.4-1.5-18.3
			c4.4-5.1,12.4-5.9,18.3-1.5L590.9,355.1z M262,447.3c5.1,4.4,5.9,12.4,1.5,18.3c-2.3,2.9-5.8,4.5-9.5,4.4c-3,0.2-5.9-0.9-8.1-2.9
			l-109.1-92.3c-5.3-4.5-5.9-12.4-1.4-17.6c0.4-0.5,0.9-1,1.4-1.4l108.4-92.3c5.1-4.4,13.2-3.7,18.3,1.5s3.7,13.2-1.5,18.3l-97.4,82
			L262,447.3z M421.7,254.7l-92.3,230.7c-1.9,4.9-6.5,8.1-11.7,8.1c-1.5,0.1-3-0.1-4.4-0.7c-6.4-2.9-9.6-10.2-7.3-16.8l92.3-230.7
			c2.9-6.4,10.2-9.6,16.8-7.3C421,240.8,423.9,248.1,421.7,254.7z"/>
	</g>
</g>
</svg>
