<?xml version="1.0" encoding="utf-8"?>
<!-- Generator: Adobe Illustrator 24.1.1, SVG Export Plug-In . SVG Version: 6.00 Build 0)  -->
<svg version="1.1" id="Ebene_1" xmlns="http://www.w3.org/2000/svg" xmlns:xlink="http://www.w3.org/1999/xlink" x="0px" y="0px"
	 viewBox="0 0 589.9 589.9" style="enable-background:new 0 0 589.9 589.9;" xml:space="preserve">
<style type="text/css">
	.st0{fill:#FFFFFF;}
</style>
<g id="Ebene_2_1_">
	<g id="Ebene_1-2">
		<path class="st0" d="M534.6,0H276.5c-30.5,0-55.3,24.8-55.3,55.3v92.2H55.3C24.8,147.5,0,172.3,0,202.8v239.7
			c0,30.5,24.8,55.3,55.3,55.3h268.9l86.8,86.8c11.6,11.6,31.5,3.4,31.5-13V295h92.2c30.5,0,55.3-24.8,55.3-55.3V55.3
			C589.9,24.8,565.1,0,534.6,0z M405.6,527l-60.7-60.7c-1.7-1.7-3.8-3.1-6-4c-2.2-0.9-4.6-1.4-7-1.4H55.3
			c-10.2,0-18.4-8.3-18.4-18.4V202.8c0-10.2,8.3-18.4,18.4-18.4h331.8c10.1-0.1,18.3,8,18.4,18c0,0.1,0,0.3,0,0.4V527z M553,239.7
			c0,10.2-8.3,18.4-18.4,18.4h-92.2v-55.3c0-30.5-24.8-55.3-55.3-55.3h-129V55.3c-0.1-10.1,8-18.3,18.1-18.4c0.1,0,0.3,0,0.4,0
			h258.1c10.2,0,18.4,8.3,18.4,18.4L553,239.7z"/>
		<path class="st0" d="M171.3,300.3c-7.1,7.2-7.1,18.8,0,26c7.3,7.1,18.9,7.1,26.2,0c7.1-7.2,7.1-18.8,0-26
			C190.7,293.3,178.2,293.5,171.3,300.3z"/>
		<path class="st0" d="M263.5,300.3c-7.1,7.2-7.1,18.8,0,26c7.3,7.1,18.9,7.1,26.2,0c7.1-7.2,7.1-18.8,0-26
			C282.9,293.3,270.3,293.5,263.5,300.3z"/>
		<path class="st0" d="M355.7,300.3c-7.2,6.8-7,19.3,0,26c6.7,7.1,19.2,7.2,26,0c7.2-6.9,7.4-18.3,0.5-25.5
			c-0.2-0.2-0.3-0.3-0.5-0.5C375.1,293.3,362.3,293.5,355.7,300.3z"/>
	</g>
</g>
</svg>
