<?xml version="1.0" encoding="utf-8"?>
<!-- Generator: Adobe Illustrator 24.1.1, SVG Export Plug-In . SVG Version: 6.00 Build 0)  -->
<svg version="1.1" id="Ebene_1" xmlns="http://www.w3.org/2000/svg" xmlns:xlink="http://www.w3.org/1999/xlink" x="0px" y="0px"
	 viewBox="0 0 374 590" style="enable-background:new 0 0 374 590;" xml:space="preserve">
<style type="text/css">
	.st0{fill:#FFFFFF;stroke:#FFFFFF;stroke-width:14;stroke-miterlimit:10;}
</style>
<g id="Ebene_2_1_">
	<g id="Ebene_1-2">
		<path class="st0" d="M235,511h-96c-6.6,0-12,5.4-12,12c0,6.6,5.4,12,12,12c0,0,0,0,0,0h96c6.6,0,12-5.4,12-12
			C247,516.4,241.6,511,235,511L235,511z"/>
		<path class="st0" d="M235,559h-96c-6.6,0-12,5.4-12,12s5.4,12,12,12h96c6.6,0,12-5.4,12-12S241.6,559,235,559z"/>
		<path class="st0" d="M80.2,331.7c14.3,10.6,22.8,28.1,22.8,47V445c0,24.7,14.8,42.1,36,42.1h96c19.9,0,36-16.1,36-36v-72.3
			c0-19,8.2-36.4,22.1-46.5c80.3-58.5,97.9-170.9,39.4-251.2c-5.8-8-12.2-15.4-19.3-22.3C278.6,24.6,232.4,5.9,184,7.1
			C89.8,8.6,10.5,86.4,7.1,180.4C5,239.8,32.3,296.4,80.2,331.7z M184.3,31c0.9,0,1.8,0,2.7,0c86.1-0.1,155.9,69.6,156,155.7
			c0,49.9-23.8,96.7-64.1,126.1c-20,14.6-31.9,39.2-31.9,65.9V451c0,6.6-5.4,12-12,12h-36v-199l44.5-44.5c4.7-4.7,4.7-12.3,0-17
			s-12.3-4.7-17,0L187,242l-39.5-39.5c-4.7-4.7-12.3-4.7-17,0c-4.7,4.7-4.7,12.3,0,17l44.5,44.5v199h-36c-8.8,0-12-9.3-12-18.1
			v-66.3c0-26.5-12.2-51.2-32.5-66.3c-41.5-30.6-65.2-79.6-63.3-131.1C34,99.7,102.8,32.4,184.3,31z"/>
	</g>
</g>
</svg>
