<svg xmlns="http://www.w3.org/2000/svg" viewBox="0 0 641.5484 185.29028"><g id="Ebene_2" data-name="Ebene 2"><g id="Ebene_1-2" data-name="Ebene 1"><path d="M188.64514,0H.25806V38.19354H188.64514ZM24.0127,29.67767H19.98047l-1.82373-9.08789-2.01611,9.08789H12.30078L11.2124,7.27777h2.36817l.96,20,2.65625-10.56006h1.98388l2.71973,10.56006.99219-20h2.208Zm17.08789-6.87988H32.58838v2.3999a1.95437,1.95437,0,0,0,.60791,1.53614,2.608,2.608,0,0,0,1.792.54394h5.08789v2.3999H35.30859a5.981,5.981,0,0,1-4.12841-1.20019,5.09268,5.09268,0,0,1-1.312-3.91992V18.79779a5.42721,5.42721,0,0,1,1.18409-3.936,5.42778,5.42778,0,0,1,3.936-1.18409h1.50391a4.45458,4.45458,0,0,1,3.43994,1.26416,5.26219,5.26219,0,0,1,1.16846,3.6958Zm18.07959,6.87988h-5.376a2.69091,2.69091,0,0,1-1.9043-.76806,3.202,3.202,0,0,1-.81592-2.43213V9.67767H46.38037V7.27777H53.8042v19.04a.93088.93088,0,0,0,.25586.73584,1.31125,1.31125,0,0,0,.86426.22412h4.25586Zm15.648-13.60009H70.37988a2.61042,2.61042,0,0,0-1.792.54394A1.95573,1.95573,0,0,0,67.98,18.15765v7.04a1.95437,1.95437,0,0,0,.60791,1.53614,2.608,2.608,0,0,0,1.792.54394h4.44825v2.3999H70.69971a5.98049,5.98049,0,0,1-4.12793-1.20019,5.09267,5.09267,0,0,1-1.312-3.91992V18.79779a5.06744,5.06744,0,0,1,1.32812-3.9043,5.93824,5.93824,0,0,1,4.11182-1.21582h4.12842Zm18.46337,8.48a5.0684,5.0684,0,0,1-1.32763,3.90429,5.938,5.938,0,0,1-4.11231,1.21582H86.7959a5.93716,5.93716,0,0,1-4.11231-1.21582,5.06668,5.06668,0,0,1-1.32812-3.90429V18.79779a5.06744,5.06744,0,0,1,1.32812-3.9043,5.93964,5.93964,0,0,1,4.11231-1.21582h1.05566a5.94047,5.94047,0,0,1,4.11231,1.21582,5.06916,5.06916,0,0,1,1.32763,3.9043Zm18.5918,5.12011h-2.55957v-11.52a4.26838,4.26838,0,0,0-.27246-1.82421q-.27173-.51124-1.23193-.51172h-.1919a1.38941,1.38941,0,0,0-1.32812.65576,3.19365,3.19365,0,0,0-.39991,1.45605V29.67767h-2.56005v-11.52a3.68973,3.68973,0,0,0-.31983-1.83984,1.26569,1.26569,0,0,0-1.15185-.49609h-.19239a1.51331,1.51331,0,0,0-1.34375.56005,2.38041,2.38041,0,0,0-.416,1.26368V29.67767H97.35547v-16h2.3999v.73584a2.89634,2.89634,0,0,1,1.98389-.73584h.19238a3.65413,3.65413,0,0,1,3.168,1.27979,3.43221,3.43221,0,0,1,2.78369-1.27979h.19238a3.77245,3.77245,0,0,1,2.87989.99219,5.16038,5.16038,0,0,1,.92773,3.52Zm15.61621-6.87988H118.9873v2.3999a1.95437,1.95437,0,0,0,.60791,1.53614,2.608,2.608,0,0,0,1.792.54394h5.08789v2.3999h-4.76758a5.981,5.981,0,0,1-4.12842-1.20019,5.09267,5.09267,0,0,1-1.312-3.91992V18.79779a5.42721,5.42721,0,0,1,1.18408-3.936,5.42781,5.42781,0,0,1,3.936-1.18409h1.5039a4.45457,4.45457,0,0,1,3.43994,1.26416,5.26219,5.26219,0,0,1,1.16846,3.6958Zm34.17529-6.72021h-4.67187V25.9975a1.215,1.215,0,0,0,.35205.99219,1.69947,1.69947,0,0,0,1.08789.28808h3.23193v2.3999h-4.03173a3.0381,3.0381,0,0,1-2.4961-1.05615,4.25634,4.25634,0,0,1-.86426-2.78369V16.07758h-3.04V13.67767h3.04V9.83783h2.72022v3.83984h4.67187Zm18.01563,8.48a5.06837,5.06837,0,0,1-1.32764,3.90429,5.938,5.938,0,0,1-4.1123,1.21582h-1.05567a5.93713,5.93713,0,0,1-4.1123-1.21582,5.06668,5.06668,0,0,1-1.32813-3.90429V18.79779a5.06744,5.06744,0,0,1,1.32813-3.9043,5.93962,5.93962,0,0,1,4.1123-1.21582h1.05567a5.94044,5.94044,0,0,1,4.1123,1.21582,5.06913,5.06913,0,0,1,1.32764,3.9043Z" style="fill:#fff"/><path d="M122.92334,16.07758h-1.856a2.07059,2.07059,0,0,0-1.61621.52832,2.28383,2.28383,0,0,0-.46387,1.55175v2.24024h5.856V17.9975a1.86048,1.86048,0,0,0-1.91992-1.91992Z" style="fill:#fff"/><path d="M174.5708,16.07758h-1.69629a2.61042,2.61042,0,0,0-1.792.54394,1.95573,1.95573,0,0,0-.60791,1.53613v7.04a1.95437,1.95437,0,0,0,.60791,1.53614,2.608,2.608,0,0,0,1.792.54394h1.69629a2.60966,2.60966,0,0,0,1.792-.54394,1.956,1.956,0,0,0,.60791-1.53614v-7.04a1.95734,1.95734,0,0,0-.60791-1.53613A2.61212,2.61212,0,0,0,174.5708,16.07758Z" style="fill:#fff"/><path d="M88.17188,16.07758H86.47559a2.61047,2.61047,0,0,0-1.792.54394,1.95573,1.95573,0,0,0-.60791,1.53613v7.04a1.95437,1.95437,0,0,0,.60791,1.53614,2.608,2.608,0,0,0,1.792.54394h1.69629a2.60966,2.60966,0,0,0,1.792-.54394,1.956,1.956,0,0,0,.60791-1.53614v-7.04a1.95738,1.95738,0,0,0-.60791-1.53613A2.61212,2.61212,0,0,0,88.17188,16.07758Z" style="fill:#fff"/><path d="M36.52441,16.07758H34.66846a2.07057,2.07057,0,0,0-1.61621.52832,2.28383,2.28383,0,0,0-.46387,1.55175v2.24024h5.856V17.9975a1.86049,1.86049,0,0,0-1.91993-1.91992Z" style="fill:#fff"/><path d="M361.54834,152.22992H359.1626a3.66882,3.66882,0,0,0-2.51953.76514,2.74794,2.74794,0,0,0-.85547,2.15966v9.90039a2.74588,2.74588,0,0,0,.85547,2.15967,3.664,3.664,0,0,0,2.51953.76514h2.38574a3.66567,3.66567,0,0,0,2.51953-.76514,2.74916,2.74916,0,0,0,.85547-2.15967v-9.90039a2.75123,2.75123,0,0,0-.85547-2.15966A3.67053,3.67053,0,0,0,361.54834,152.22992Z" style="fill:#fff"/><path d="M191.71973,152.22992h-2.60987a2.91064,2.91064,0,0,0-2.27246.74268,3.21419,3.21419,0,0,0-.65234,2.18212v3.15039h8.23486v-3.375a2.617,2.617,0,0,0-2.70019-2.70019Z" style="fill:#fff"/><path d="M531.646,152.22992h-2.38575a3.66885,3.66885,0,0,0-2.51953.76514,2.748,2.748,0,0,0-.85547,2.15966v9.90039a2.74591,2.74591,0,0,0,.85547,2.15967,3.664,3.664,0,0,0,2.51953.76514H531.646a3.66568,3.66568,0,0,0,2.51953-.76514,2.74919,2.74919,0,0,0,.85547-2.15967v-9.90039a2.75126,2.75126,0,0,0-.85547-2.15966A3.67055,3.67055,0,0,0,531.646,152.22992Z" style="fill:#fff"/><path d="M312.813,152.22992h-2.51953a2.84646,2.84646,0,0,0-2.20508.7876,2.46278,2.46278,0,0,0-.71973,1.6875v13.2749H312.813a3.66673,3.66673,0,0,0,2.52051-.76514,2.74861,2.74861,0,0,0,.85449-2.15967v-9.90039a2.75068,2.75068,0,0,0-.85449-2.15966A3.6716,3.6716,0,0,0,312.813,152.22992Z" style="fill:#fff"/><path d="M410.41748,152.22992h-2.60937a2.913,2.913,0,0,0-2.27344.74268,3.21672,3.21672,0,0,0-.65235,2.18212v3.15039h8.23536v-3.375a2.61627,2.61627,0,0,0-2.7002-2.70019Z" style="fill:#fff"/><path d="M167.42041,161.00482a2.547,2.547,0,0,0,2.11523-.8999,3.51844,3.51844,0,0,0,.81006-1.89014v-5.98486h-6.07519a3.66936,3.66936,0,0,0-2.52.76514,2.74769,2.74769,0,0,0-.855,2.15966V158.08a2.74565,2.74565,0,0,0,.855,2.15967,3.66449,3.66449,0,0,0,2.52.76513Z" style="fill:#fff"/><path d="M112.83594,161.54486a2.62324,2.62324,0,0,0-.76514,1.93506v2.25a1.94353,1.94353,0,0,0,2.25,2.25h4.00537q1.34985,0,1.71-.62988a3.24114,3.24114,0,0,0,.35987-1.62012v-4.9502h-5.625A2.62287,2.62287,0,0,0,112.83594,161.54486Z" style="fill:#fff"/><path d="M604.81494,152.22992h-2.60937a2.913,2.913,0,0,0-2.27344.74268,3.21672,3.21672,0,0,0-.65234,2.18212v3.15039h8.23535v-3.375a2.61627,2.61627,0,0,0-2.7002-2.70019Z" style="fill:#fff"/><path d="M.51611,131.3548v53.93548H641.5484V131.3548Zm27.18116,11.78528H16.582v10.30468h9.99024v3.28516H16.582v11.33984H27.69727v3.28516H12.667v-31.5H27.69727Zm21.46484,28.21484L44.437,162.85l-4.95019,8.50488h-4.23l7.02-11.60986-6.48-10.89014H40.252l4.27491,7.56006,4.36523-7.56006h4.18506l-6.57031,10.71,7.15527,11.79Zm26.32471-19.125H69.23193a3.66853,3.66853,0,0,0-2.52.76514,2.74769,2.74769,0,0,0-.855,2.15966v9.90039a2.74562,2.74562,0,0,0,.855,2.15967,3.66367,3.66367,0,0,0,2.52.76514h6.25489v3.375H69.68164q-3.96021,0-5.80469-1.6875-1.84571-1.6875-1.84521-5.5127v-8.09961q0-3.78,1.86767-5.49023,1.86695-1.70947,5.78223-1.71h5.80518Zm25.8291,19.125H97.49121v-16.2002a2.71821,2.71821,0,0,0-2.92529-2.9248H91.59619a2.87795,2.87795,0,0,0-2.16015.74268,2.45791,2.45791,0,0,0-.76465,1.59716v16.78516h-3.8252v-31.5h3.8252v9.8999a5.95862,5.95862,0,0,1,3.375-.8999h2.06982q3.64527,0,5.42236,1.71,1.77759,1.71095,1.77735,5.49023Zm25.15527,0h-2.4751a2.8257,2.8257,0,0,1-1.28271-.35986,3.59014,3.59014,0,0,1-1.19238-.99024,3.29015,3.29015,0,0,1-2.74512,1.3501H114.771q-3.42042,0-4.97266-1.37256-1.552-1.37182-1.55225-4.70264v-.8999q0-6.97485,6.56983-6.9751H120.396v-2.25a2.751,2.751,0,0,0-.855-2.15966,3.67193,3.67193,0,0,0-2.52-.76514h-6.9751v-3.375h6.5249q3.91552,0,5.78272,1.71,1.86693,1.71095,1.86767,5.49023v10.79981a1.12772,1.12772,0,0,0,.51709,1.01269,3.31576,3.31576,0,0,0,1.73291.33741Zm23.44434,0h-3.82471v-16.2002a2.71821,2.71821,0,0,0-2.92529-2.9248H140.1958a2.84647,2.84647,0,0,0-2.20508.7876,2.465,2.465,0,0,0-.71972,1.6875v16.6499h-3.8252v-22.5h3.6001V149.935a5.70809,5.70809,0,0,1,3.6001-1.08008h2.06982q3.64527,0,5.42236,1.71,1.77759,1.71095,1.77735,5.49023Zm24.93017,1.57519a5.58567,5.58567,0,0,1-1.82275,4.56739q-1.82226,1.50732-5.69238,1.50732H157.9707v-3.375h9.81006a3.92005,3.92005,0,0,0,2.42969-.62988,1.964,1.964,0,0,0,.81006-1.62012v-1.43994a1.94653,1.94653,0,0,0-.81006-1.64258,4.03,4.03,0,0,0-2.42969-.60742h-7.78515v-6.21a5.04766,5.04766,0,0,1-2.20508-2.33984,9.34538,9.34538,0,0,1-.71973-3.96v-1.125q0-3.78,1.86719-5.49023,1.86694-1.70947,5.78271-1.71h9.44971v8.32519a7.29832,7.29832,0,0,1-1.84473,5.28711,6.4996,6.4996,0,0,1-4.90527,1.9126H163.8208v1.93506h3.50977q3.86938,0,5.69238,1.50732a5.58673,5.58673,0,0,1,1.82275,4.56788Zm23.30909-11.25H186.18506v3.375a2.74562,2.74562,0,0,0,.855,2.15967,3.66367,3.66367,0,0,0,2.52.76514h7.15478v3.375h-6.70507q-3.96021,0-5.80469-1.6875-1.84571-1.6875-1.84522-5.5127v-8.09961q0-3.87011,1.665-5.53515,1.66407-1.66407,5.53516-1.665h2.11474a6.2663,6.2663,0,0,1,4.83741,1.77734,7.404,7.404,0,0,1,1.64258,5.19776Zm18.6748,9.67481h-4.5v-4.5h4.5Zm53.86523-28.21484H259.5791v10.30468h9.99072v3.28516H259.5791v11.33984h11.11572v3.28516H255.66406v-31.5h15.03076Zm21.46387,28.21484L287.43408,162.85l-4.95019,8.50488h-4.23047l7.02051-11.60986-6.48047-10.89014h4.45508l4.27539,7.56006,4.36425-7.56006h4.18555l-6.57031,10.71,7.15527,11.79Zm27.85449-7.2002q0,3.78-1.86718,5.49024-1.86768,1.71093-5.78223,1.71h-4.99512v7.6499h-3.82519v-30.1499h3.59961V149.935a5.71048,5.71048,0,0,1,3.60058-1.08008h1.62012q3.95948,0,5.80469,1.6875,1.84424,1.6875,1.84472,5.51269Zm25.06543,7.2002h-7.56054a3.7837,3.7837,0,0,1-2.67774-1.08008,4.50438,4.50438,0,0,1-1.14746-3.41992v-23.625h-6.61426v-3.375h10.43946v26.7749a1.30974,1.30974,0,0,0,.36035,1.03516,1.84312,1.84312,0,0,0,1.21484.31494h5.98535Zm23.66895-7.2002q0,3.78-1.86719,5.49024-1.86768,1.71093-5.78223,1.71h-1.48535q-3.91406,0-5.78222-1.71-1.86768-1.70947-1.86719-5.49024v-8.09961q0-3.78,1.86719-5.49023,1.86621-1.70947,5.78222-1.71h1.48535q3.91554,0,5.78223,1.71,1.86768,1.71095,1.86719,5.49023ZM392.148,152.455h-5.085a2.57146,2.57146,0,0,0-2.16016.92236,3.2765,3.2765,0,0,0-.76465,1.86768v12.73486h4.9043v3.375H377.02783v-3.375H380.313v-15.75h-3.28516v-3.375h6.88477v1.21484a5.501,5.501,0,0,1,3.60058-1.21484H392.148Zm24.70508,9.22509H404.88232v3.375a2.74591,2.74591,0,0,0,.85547,2.15967,3.66229,3.66229,0,0,0,2.51953.76514h7.15528v3.375h-6.70508q-3.95947,0-5.80469-1.6875-1.8457-1.6875-1.84472-5.5127v-8.09961q0-3.87011,1.66406-5.53515,1.66553-1.66407,5.53515-1.665h2.11524a6.26814,6.26814,0,0,1,4.83789,1.77734A7.404,7.404,0,0,1,416.853,155.83Zm18.6748,9.67481h-4.5v-4.5h4.5Zm53.86328-28.21484H478.27588v10.30468h9.99023v3.28516h-9.99023v11.33984h11.11523v3.28516H474.36084v-31.5h15.03027Zm19.5752,28.21484h-5.53516l-6.52539-22.5h4.13965l5.26563,19.395,5.12988-19.395h4.00488Zm29.8789-7.2002q0,3.78-1.86718,5.49024-1.86768,1.71093-5.78223,1.71h-1.48535q-3.91407,0-5.78223-1.71-1.86766-1.70947-1.86718-5.49024v-8.09961q0-3.78,1.86718-5.49023,1.86621-1.70947,5.78223-1.71h1.48535q3.91553,0,5.78223,1.71,1.86766,1.71095,1.86718,5.49023Zm24.93067,7.2002h-7.56055a3.78366,3.78366,0,0,1-2.67773-1.08008,4.50438,4.50438,0,0,1-1.14746-3.41992v-23.625h-6.61426v-3.375h10.43945v26.7749a1.30977,1.30977,0,0,0,.36035,1.03516,1.84314,1.84314,0,0,0,1.21485.31494h5.98535Zm18.08984,0h-5.53515l-6.52539-22.5h4.13964l5.26563,19.395,5.12988-19.395h4.00488Zm29.38477-9.67481h-11.9707v3.375a2.7459,2.7459,0,0,0,.85546,2.15967,3.66231,3.66231,0,0,0,2.51954.76514h7.15527v3.375H603.105q-3.95947,0-5.80469-1.6875-1.8457-1.6875-1.84472-5.5127v-8.09961q0-3.87011,1.66406-5.53515,1.66552-1.66407,5.53516-1.665H604.77a6.26814,6.26814,0,0,1,4.83789,1.77734,7.404,7.404,0,0,1,1.64258,5.19776Zm18.6748,9.67481h-4.5v-4.5h4.5Z" style="fill:#fff"/><path d="M131.19922,59.01166H118.94434v52.25H131.104q3.60938,0,5.32032-1.6626,1.70946-1.66113,1.71-5.27246V65.8515a6.64747,6.64747,0,0,0-1.8999-4.9873A6.90706,6.90706,0,0,0,131.19922,59.01166Z" style="fill:#fff"/><path d="M260.9032,43.09674H0v82.32257H260.9032ZM41.23535,59.10687H26.79541a7.90483,7.90483,0,0,0-5.69971,2.08985,6.71407,6.71407,0,0,0-2.18506,5.03515v37.80957a6.70956,6.70956,0,0,0,2.18506,5.03516,7.89867,7.89867,0,0,0,5.69971,2.08984H41.23535v7.22022H27.74561q-8.26539,0-12.68262-4.0376-4.41724-4.03638-4.41748-12.1123V68.03656q0-8.07348,4.41748-12.1123,4.41723-4.03711,12.68262-4.0376H41.23535Zm55.0044,43.12989q0,8.07567-4.41748,12.1123-4.41724,4.0393-12.68262,4.0376H75.33984q-8.26464,0-12.68261-4.0376-4.41724-4.03638-4.41748-12.1123V68.03656q0-8.07348,4.41748-12.1123,4.418-4.03711,12.68261-4.0376h3.79981q8.26537,0,12.68262,4.0376,4.418,4.03857,4.41748,12.1123Zm50.15918,1.14013q0,8.17091-3.75245,11.58985-3.75366,3.41967-12.39746,3.41992H110.6792v-66.5h18.43018q8.54955,0,12.91992,3.46728,4.36816,3.46948,4.36963,11.35254Zm49.30468-44.55517H172.23828V80.5766h21.09033v6.93506H172.23828V111.4516h23.46533v6.93506h-31.73v-66.5h31.73Zm46.9292,59.56494-11.3999-24.98487L219.2627,118.38666H210.333l16.52978-34.39014L211.853,51.88666h9.0249l10.44971,22.51513,10.83007-22.51513h8.835L235.603,83.90179l16.33984,34.48487Z" style="fill:#fff"/><path d="M80.08984,59.10687H74.38965a7.90483,7.90483,0,0,0-5.69971,2.08985,6.7158,6.7158,0,0,0-2.18506,5.03515v37.80957a6.71128,6.71128,0,0,0,2.18506,5.03516,7.89867,7.89867,0,0,0,5.69971,2.08984h5.70019A7.90541,7.90541,0,0,0,85.79,109.0766a6.7161,6.7161,0,0,0,2.18457-5.03516V66.23187A6.72062,6.72062,0,0,0,85.79,61.19672,7.91158,7.91158,0,0,0,80.08984,59.10687Z" style="fill:#fff"/></g></g></svg>